<svg xmlns="http://www.w3.org/2000/svg" viewBox="0 0 512 512" role="img" aria-label="Perfil RD DM Tienda">
  <defs>
    <linearGradient id="bg" x1="0" y1="0" x2="1" y2="1"><stop stop-color="#fbf7ee"/><stop offset="1" stop-color="#f4ead8"/></linearGradient>
    <linearGradient id="g" x1="0" y1="0" x2="1" y2="1"><stop stop-color="#004b34"/><stop offset="1" stop-color="#00754a"/></linearGradient>
  </defs>
  <rect width="512" height="512" rx="96" fill="url(#bg)"/>
  <path d="M96 154 Q256 66 416 154" fill="none" stroke="#006241" stroke-width="10" stroke-linecap="round" stroke-dasharray="2 22"/>
  <g fill="none" stroke="#006241" stroke-width="13" stroke-linecap="round" stroke-linejoin="round">
    <circle cx="116" cy="140" r="43"/><path d="M65 222c8-39 34-62 51-62s43 23 51 62"/>
    <circle cx="256" cy="120" r="47"/><path d="M201 222c10-43 36-67 55-67s45 24 55 67"/>
    <circle cx="396" cy="140" r="43"/><path d="M345 222c8-39 34-62 51-62s43 23 51 62"/>
  </g>
  <g font-family="Arial, Helvetica, sans-serif" font-weight="800" font-size="34" text-anchor="middle">
    <rect x="64" y="217" width="104" height="56" rx="24" fill="url(#g)"/><text x="116" y="255" fill="#fff">SM</text>
    <rect x="204" y="217" width="104" height="56" rx="24" fill="url(#g)"/><text x="256" y="255" fill="#fff">DM</text>
    <rect x="344" y="217" width="104" height="56" rx="24" fill="url(#g)"/><text x="396" y="255" fill="#fff">RD</text>
  </g>
  <g fill="none" stroke="#006241" stroke-width="14" stroke-linecap="round" stroke-linejoin="round">
    <path d="M144 332h224l-26-48H170z"/>
    <path d="M155 332v96h202v-96"/>
    <path d="M137 428h238"/>
    <path d="M189 428v-65h45v65"/>
    <path d="M262 363h65v44h-65z"/>
  </g>
  <circle cx="256" cy="318" r="35" fill="#006241"/>
  <path d="M239 318l11 11 24-26" fill="none" stroke="#fff" stroke-width="10" stroke-linecap="round" stroke-linejoin="round"/>
  <text x="256" y="477" font-family="Arial, Helvetica, sans-serif" font-weight="900" font-size="38" text-anchor="middle" fill="#006241">PERFIL</text>
</svg>
